<svg xmlns="http://www.w3.org/2000/svg" viewBox="0 0 811.15 203.72"><defs><style>.cls-1{fill:#656565;}.cls-2{isolation:isolate;font-size:83px;fill:#fff;font-family:OpenSans-Bold, Open Sans;font-weight:700;}</style></defs><title>logo-footer_1</title><g id="Capa_2" data-name="Capa 2"><g id="Capa_1-2" data-name="Capa 1"><path class="cls-1" d="M276.3,72.12,182.6,1.42a6.9,6.9,0,0,0-8.4,0L158.8,13,143.4,1.42a6.9,6.9,0,0,0-8.4,0l-15,11.3L105,1.42a6.9,6.9,0,0,0-8.4,0L2.8,72.12A6.87,6.87,0,0,0,0,77.72v119a7,7,0,0,0,7,7H272.1a7,7,0,0,0,7-7v-119A6.87,6.87,0,0,0,276.3,72.12Zm-11.2,117.5H239.8v-112A6.87,6.87,0,0,0,237,72l-66.6-50.3,8-6,86.7,65.4v108.5Zm-63.7,0v-112a6.87,6.87,0,0,0-2.8-5.6l-67.1-50.5,7.6-5.7,86.7,65.4v108.5H201.4v-.1Zm-89.2,0h-23v-50.8h22.9Zm14,0v-57.8a7,7,0,0,0-7-7h-37a7,7,0,0,0-7,7v57.8H14V81.22l86.7-65.4,86.7,65.4v108.5l-61.2-.1Z"/><text class="cls-2" transform="translate(310.64 170.29)">Find Houses</text></g></g></svg>